<?xml version="1.0" encoding="utf-8"?>
<!-- Generator: Adobe Illustrator 26.0.0, SVG Export Plug-In . SVG Version: 6.00 Build 0)  -->
<svg version="1.1" id="Layer_1" xmlns="http://www.w3.org/2000/svg" xmlns:xlink="http://www.w3.org/1999/xlink" x="0px" y="0px"
	 viewBox="0 0 2612.1 1322.2" style="enable-background:new 0 0 2612.1 1322.2;" xml:space="preserve">
<style type="text/css">
	.st0{fill-rule:evenodd;clip-rule:evenodd;fill:#F0F0F0;}
	.st1{fill-rule:evenodd;clip-rule:evenodd;fill:#B7B778;}
	.st2{fill-rule:evenodd;clip-rule:evenodd;fill:#7A7A67;}
	.st3{fill-rule:evenodd;clip-rule:evenodd;fill:url(#SVGID_1_);}
	.st4{fill-rule:evenodd;clip-rule:evenodd;fill:#F0F0D0;}
	.st5{fill-rule:evenodd;clip-rule:evenodd;fill:#D8D8CE;}
	.st6{fill-rule:evenodd;clip-rule:evenodd;fill:url(#SVGID_00000129189741547678373300000003047068381117349300_);}
	.st7{fill:#B7B778;}
</style>
<path class="st0" d="M1083.8,428.3h-19.1c-13.1,0-23.7,10.6-23.7,23.7v38.4c0,13.1-10.6,23.7-23.7,23.7l0,0H901.1
	c-13.1,0-23.7-10.6-23.7-23.7c0,0,0,0,0,0V452c0-13.1-10.6-23.7-23.7-23.7h-212c-13.1,0-23.7-10.6-23.7-23.7c0,0,0,0,0,0v-76.1
	c0-4.8,1.5-9.5,4.2-13.5l201-290.8c4.4-6.4,11.7-10.2,19.5-10.2H959c13.1,0,23.7,10.6,23.7,23.7c0,4.7-1.4,9.2-4,13.1L839,260.8
	c-7.2,10.9-4.3,25.6,6.6,32.8c10.9,7.2,25.6,4.3,32.8-6.6c2.6-3.9,4-8.4,4-13.1v-29.1c0-13.1,10.6-23.7,23.7-23.7h111.2
	c13.1,0,23.7,10.6,23.7,23.7v29.1c0,13.1,10.6,23.7,23.7,23.7l0,0h19.1c13.1,0,23.7,10.6,23.7,23.7v83.4
	C1107.5,417.7,1096.9,428.3,1083.8,428.3C1083.8,428.3,1083.8,428.3,1083.8,428.3z"/>
<path class="st0" d="M1240,494.4c-34.1-20.7-60.7-50.7-80-90c-19.3-39.3-28.9-86.1-28.9-140.4c0-54.3,9.6-101.1,28.9-140.4
	c19.3-39.3,46-69.3,80-90c34-20.7,73.2-31.1,117.5-31.1S1441,12.9,1475,33.6c34,20.7,60.7,50.7,80,90
	c19.3,39.3,28.9,86.1,28.9,140.4c0,54.3-9.6,101.1-28.9,140.4s-46,69.3-80,90c-34.1,20.7-73.2,31.1-117.5,31.1
	C1313.2,525.5,1274.1,515.1,1240,494.4L1240,494.4z M1414.7,264L1414.7,264c0-84.3-19-126.4-57.1-126.4
	c-38.1,0-57.1,42.2-57.2,126.4c0,84.3,19.1,126.4,57.2,126.4C1395.6,390.5,1414.7,348.3,1414.7,264z"/>
<path class="st0" d="M2086.8,428.3h-19.1c-13.1,0-23.7,10.6-23.7,23.7v38.4c0,13.1-10.6,23.7-23.7,23.7h-116.2
	c-13.1,0-23.7-10.6-23.7-23.7V452c0-13.1-10.6-23.7-23.7-23.7h-212c-13.1,0-23.7-10.6-23.7-23.7v-76.1c0-4.8,1.5-9.5,4.2-13.5
	l200.9-290.8c4.4-6.4,11.7-10.2,19.5-10.2H1962c13.1,0,23.7,10.6,23.7,23.7c0,4.7-1.4,9.2-4,13.1l-139.7,210
	c-7.2,10.9-4.3,25.6,6.6,32.8s25.6,4.3,32.8-6.6c2.6-3.9,4-8.5,4-13.1v-29.1c0-13.1,10.6-23.7,23.7-23.7h111.2
	c13.1,0,23.7,10.6,23.7,23.7v29.1c0,13.1,10.6,23.7,23.7,23.7h19.1c13.1,0,23.7,10.6,23.7,23.7v83.4
	C2110.4,417.7,2099.8,428.3,2086.8,428.3C2086.8,428.3,2086.8,428.3,2086.8,428.3z"/>
<path class="st1" d="M1043,425.8h-19.1c-13.1,0-23.7,10.6-23.7,23.7c0,0,0,0,0,0v38.4c0,13.1-10.6,23.7-23.7,23.7l0,0H860.3
	c-13.1,0-23.7-10.6-23.7-23.7v-38.4c0-13.1-10.6-23.7-23.7-23.7H601c-13.1,0-23.7-10.6-23.7-23.7V326c0-4.8,1.5-9.5,4.2-13.5
	l201-290.9c4.4-6.4,11.7-10.2,19.4-10.2h116.3c13.1,0,23.7,10.6,23.7,23.6c0,4.7-1.4,9.3-4,13.2l-139.6,210
	c-7.2,10.9-4.3,25.6,6.6,32.8c10.9,7.2,25.6,4.3,32.8-6.6c2.6-3.9,4-8.4,4-13.1v-29.1c0-13.1,10.6-23.7,23.7-23.7l0,0h111.2
	c13.1,0,23.7,10.6,23.7,23.7v29.1c0,13.1,10.6,23.7,23.7,23.7h19.1c13.1,0,23.7,10.6,23.7,23.7c0,0,0,0,0,0v83.4
	C1066.6,415.2,1056.1,425.7,1043,425.8z"/>
<path class="st1" d="M1199.2,491.8c-34.1-20.7-60.7-50.7-80-90c-19.3-39.3-28.9-86.1-28.9-140.4c0-54.3,9.6-101.1,28.9-140.4
	s46-69.3,80-90c34-20.7,73.2-31.1,117.5-31.1c44.3,0,83.5,10.4,117.5,31.1c34,20.7,60.7,50.7,80,90s28.9,86.1,28.9,140.4
	c0,54.3-9.6,101.1-28.9,140.4s-46,69.3-80,90c-34.1,20.7-73.2,31.1-117.5,31.1C1272.4,522.9,1233.2,512.6,1199.2,491.8z
	 M1373.9,261.5L1373.9,261.5c0-84.3-19.1-126.4-57.2-126.4s-57.2,42.2-57.2,126.4c0,84.3,19.1,126.4,57.2,126.4
	C1354.8,387.9,1373.9,345.8,1373.9,261.5z"/>
<path class="st1" d="M2046,425.8h-19.1c-13.1,0-23.7,10.6-23.7,23.7v38.4c0,13.1-10.6,23.7-23.7,23.7h-116.2
	c-13.1,0-23.7-10.6-23.7-23.7v-38.4c0-13.1-10.6-23.7-23.7-23.7c0,0,0,0,0,0h-212c-13.1,0-23.7-10.6-23.7-23.7V326
	c0-4.8,1.5-9.5,4.2-13.5l201-290.9c4.4-6.4,11.7-10.2,19.5-10.2h116.3c13.1,0,23.7,10.5,23.7,23.6c0,4.7-1.4,9.3-4,13.2l-139.7,210
	c-7.2,10.9-4.3,25.6,6.6,32.8c10.9,7.2,25.6,4.3,32.8-6.6c2.6-3.9,4-8.4,4-13.1v-29.1c0-13.1,10.6-23.7,23.7-23.7h111.2
	c13.1,0,23.7,10.6,23.7,23.7c0,0,0,0,0,0v29.1c0,13.1,10.6,23.7,23.7,23.7c0,0,0,0,0,0h19.1c13.1,0,23.7,10.6,23.7,23.7v83.4
	C2069.6,415.2,2059,425.8,2046,425.8z"/>
<path class="st2" d="M219.7,819c73.2,0,133.8-23.5,183.7-70.9c59.6-56.7,94.1-137.3,127.5-215.3c37.7-88.1,73.3-171.4,138.4-192.2
	c28.7-9.2,54.7-6.1,79.7,9.4c109.8,68.3,151.4,340.3,151.8,343l37.1-5.5C936,675.6,893,395.6,768.7,318.2
	c-34.4-21.4-71.7-25.9-110.9-13.3c-81.4,26-120.3,116.9-161.4,213.2c-64,149.5-130.1,304.1-360.4,253.6l-111.4-36
	c-9.7-3.7-20.5,1.2-24.2,10.8c-3.7,9.7,1.2,20.5,10.8,24.2c0.6,0.2,1.2,0.4,1.8,0.6L127,808C159.9,815.3,190.8,819,219.7,819z"/>
<linearGradient id="SVGID_1_" gradientUnits="userSpaceOnUse" x1="1807.8796" y1="111.2182" x2="1506.9497" y2="41.7382" gradientTransform="matrix(1 0 0 -1 -706.12 890.1398)">
	<stop  offset="0" style="stop-color:#B7B778"/>
	<stop  offset="0.1857" style="stop-color:#BDBD81"/>
	<stop  offset="0.4884" style="stop-color:#CDCD99"/>
	<stop  offset="0.8684" style="stop-color:#E6E6C1"/>
	<stop  offset="1" style="stop-color:#F0F0D0"/>
</linearGradient>
<path class="st3" d="M853.4,1004.2l-39.9-193.5c-14.7-72.1,31.8-142.5,103.9-157.2c69.2-14.1,137.5,28.3,155.5,96.6l49,187.7
	L853.4,1004.2z"/>
<path class="st4" d="M853.5,1009.3c4.3,17.8,68.6,17.6,143.7-0.5s132.5-47.2,128.2-65s-68.6-17.6-143.7,0.5
	S849.2,991.5,853.5,1009.3z"/>
<path class="st2" d="M1015.6,956.8c-1.1,6,9.7,13,24,15.5s26.8-0.2,27.9-6.2s-9.7-13-24-15.5S1016.7,950.8,1015.6,956.8z"/>
<path class="st2" d="M921,985.8c-1.1,6,9.7,13,24,15.5s26.8-0.2,27.9-6.2s-9.7-13-24-15.5S922.1,979.8,921,985.8z"/>
<path class="st5" d="M973.6,679.5c0,0,57.9,21.1,76.3,81.6s34.2,138.2,34.2,138.2l-52.6,1.3L973.6,679.5z"/>
<polygon class="st2" points="922.6,610.9 894.7,659.8 931.5,651.2 "/>
<path class="st2" d="M2612.1,559.8l-14.9,33.2c-2.6-1.2-64.2-29.7-120.7-130.3c-16.3-29.1-41.4-63.1-68-60
	c-19.1,2.2-69.6,29.3-127.2,231.8c-62.7,220.8-196.9,365-398.7,428.7c-130.6,41.2-292.2-46.8-299-50.6l17.6-31.8
	c2,1.1,155,84.2,270.5,47.7c189.5-59.8,315.5-195.7,374.7-404c47.3-166.6,99-251,157.9-257.9c37.3-4.4,72.3,21.9,103.9,78.2
	C2559,535.1,2611.6,559.5,2612.1,559.8L2612.1,559.8z M1601.3,980.8L1601.3,980.8l-8.8,15.9L1601.3,980.8L1601.3,980.8z"/>
<path class="st2" d="M1263.9,848.6l95.8,69.4c8,5.8,9.8,17,4,25s-17,9.8-25,4l-95.7-69.4c-8-5.8-9.8-17-4-25
	S1255.9,842.8,1263.9,848.6L1263.9,848.6z"/>
<path class="st2" d="M1337.8,742.2l95.7,69.4c8,5.8,9.8,17,4,25s-17,9.8-25,4l-95.7-69.4c-8-5.8-9.8-17-4-25
	S1329.8,736.5,1337.8,742.2L1337.8,742.2z"/>
<polygon class="st2" points="1672.8,1018.4 1613.4,1027.2 1629.8,994.1 1686,1016.2 "/>
<linearGradient id="SVGID_00000116232895583167556450000002475549084398151298_" gradientUnits="userSpaceOnUse" x1="2121.8792" y1="-175.6328" x2="2257.3992" y2="177.4072" gradientTransform="matrix(1 0 0 -1 -706.12 890.1398)">
	<stop  offset="0" style="stop-color:#B7B778"/>
	<stop  offset="0.1857" style="stop-color:#BDBD81"/>
	<stop  offset="0.4884" style="stop-color:#CDCD99"/>
	<stop  offset="0.8684" style="stop-color:#E6E6C1"/>
	<stop  offset="1" style="stop-color:#F0F0D0"/>
</linearGradient>
<path style="fill-rule:evenodd;clip-rule:evenodd;fill:url(#SVGID_00000116232895583167556450000002475549084398151298_);" d="
	M1271.2,947.8l165.7,107.7c61.7,40.2,144.2,22.8,184.4-38.9c38.8-59.5,24.1-138.9-33.4-180.6l-156.9-114L1271.2,947.8z"/>
<path class="st5" d="M1326.8,955.7l38.1-51.6l195.6,140.9c0,0-46.9,23.4-100.9-2.9S1326.8,955.7,1326.8,955.7z"/>
<g>
	<path class="st7" d="M488,1238.3c-6.5,0-12.1-1.2-16.7-3.7c-4.5-2.4-8.2-6.2-10.5-10.8c-2.4-4.7-3.6-10.5-3.6-17.2v-23.4
		c0-6.8,1.2-12.5,3.6-17.2c2.3-4.6,6-8.4,10.5-10.8c4.6-2.5,10.1-3.8,16.7-3.8c5-0.1,10,1.1,14.4,3.5c4.3,2.4,7.9,5.8,10.4,10
		c2.9,4.9,4.9,10.3,5.7,15.9h-16.6c-0.5-2.6-1.5-5-2.9-7.2c-1.2-1.9-2.8-3.4-4.8-4.5c-1.9-1.1-4.1-1.6-6.2-1.6
		c-4.5,0-8,1.4-10.5,4.1s-3.7,6.6-3.7,11.6v23.4c0,5,1.2,8.9,3.7,11.6s6,4.1,10.5,4.1c3.3,0.1,6.5-1.2,8.9-3.5
		c2.4-2.3,4.1-5.6,5-9.9h16.6c-0.9,5.6-2.8,11-5.8,15.9c-2.6,4.2-6.1,7.6-10.4,10C498,1237.2,493.1,1238.4,488,1238.3z"/>
	<path class="st7" d="M529.1,1192.1v-15.5h49.6v15.5H529.1z M545.9,1237.4V1183h16v54.4H545.9z"/>
	<path class="st7" d="M592.2,1262.2v-85.6h16.1v85.6H592.2z M622.3,1238.3c-3.3,0.1-6.5-0.9-9.2-2.7c-2.7-1.9-4.7-4.6-5.7-7.7
		l0.8-13.9c-0.1,1.8,0.3,3.5,1.1,5.1c0.7,1.4,1.7,2.5,3.1,3.2c1.5,0.8,3.2,1.2,4.9,1.1c2.7,0.1,5.3-1,7-3c1.7-2,2.5-4.8,2.5-8.4
		v-9.7c0-3.7-0.8-6.6-2.5-8.7c-1.7-2.1-4.3-3.2-7-3.1c-1.7-0.1-3.4,0.3-4.9,1.1c-1.3,0.8-2.4,1.9-3.1,3.3c-0.7,1.7-1.1,3.5-1.1,5.3
		l-1.2-13.5c1.4-3.3,3.6-6.1,6.5-8.2c2.6-1.9,5.7-2.9,8.9-2.9c6.5,0,11.6,2.3,15.1,7c3.6,4.7,5.3,11.2,5.3,19.6v9.7
		c0,8.4-1.8,14.8-5.3,19.4S628.9,1238.3,622.3,1238.3L622.3,1238.3z"/>
	<path class="st7" d="M674,1238.3c-6.5,0-11.3-1.5-14.6-4.6s-4.9-7.8-4.9-14.2c0-6.1,1.8-10.6,5.4-13.6s9-4.5,16.3-4.5h15.2
		l0.8,12.2h-16c-1.9-0.1-3.8,0.4-5.4,1.4c-1.3,1.1-1.9,2.7-1.8,4.4c-0.1,1.8,0.8,3.5,2.3,4.4c1.5,1,3.8,1.4,6.9,1.4
		c4.3,0,7.4-0.5,9.6-1.5c1.9-0.7,3.2-2.5,3.2-4.6l1.2,8.8c-0.2,2.2-1.3,4.3-3.1,5.7c-2,1.6-4.3,2.7-6.8,3.3
		C679.5,1237.9,676.8,1238.3,674,1238.3z M690.9,1237.4v-38.6c0.1-2.5-0.9-4.9-2.8-6.5c-1.9-1.5-4.5-2.3-8-2.3
		c-2.3,0-4.6,0.4-6.7,1.1c-2.1,0.7-4.2,1.7-5.9,3.1l-10-9.8c2.6-2.9,5.9-5.1,9.6-6.5c4.2-1.6,8.7-2.4,13.2-2.3c8,0,14.2,2,18.6,5.9
		c4.4,3.9,6.6,9.5,6.6,16.7v39.1L690.9,1237.4z"/>
	<path class="st7" d="M721.3,1237.4v-60.8h16v60.8H721.3z M729.9,1215v-14.9h37.3v14.9H729.9z M758,1237.4v-60.8H774v60.8H758z"/>
	<path class="st7" d="M842.8,1237.4h-15.3v-40.3l1.4,1.5l-24.6,38.7h-13.9v-60.8h15.3v41.2l-1.4-1.5l24.7-39.7h13.8V1237.4z"/>
	<path class="st7" d="M858.8,1237.4v-60.8h16v60.8H858.8z M867.4,1237.4V1222h32v15.5H867.4z M893.7,1237.4v-60.8h16.1v60.8H893.7z
		 M903.9,1252.7V1222H920v30.7H903.9z"/>
	<path class="st7" d="M949.4,1238.3c-6.5,0-11.3-1.5-14.6-4.6c-3.2-3.1-4.9-7.8-4.9-14.2c0-6.1,1.8-10.6,5.4-13.6
		c3.6-3,9-4.5,16.3-4.5h15.2l0.8,12.2h-16c-1.9-0.1-3.8,0.4-5.4,1.4c-1.3,1.1-1.9,2.7-1.8,4.4c-0.1,1.8,0.8,3.5,2.3,4.4
		c1.5,1,3.8,1.4,6.9,1.4c4.3,0,7.4-0.5,9.6-1.5c1.9-0.7,3.2-2.5,3.2-4.6l1.2,8.8c-0.2,2.2-1.3,4.3-3.1,5.7c-2,1.6-4.3,2.7-6.8,3.3
		C954.9,1237.9,952.2,1238.3,949.4,1238.3z M966.3,1237.4v-38.6c0.1-2.5-0.9-4.9-2.8-6.5c-1.9-1.5-4.5-2.3-8-2.3
		c-2.3,0-4.6,0.4-6.7,1.1c-2.1,0.7-4.2,1.7-5.9,3.1l-10-9.8c2.6-2.9,5.9-5.1,9.6-6.5c4.2-1.6,8.7-2.4,13.2-2.3c8,0,14.2,2,18.6,5.9
		c4.4,3.9,6.6,9.5,6.6,16.7v39.1L966.3,1237.4z"/>
	<path class="st7" d="M989.7,1192.1v-15.5h49.6v15.5H989.7z M1006.4,1237.4V1183h16.1v54.4H1006.4z"/>
	<path class="st7" d="M1069.2,1238.3c-6.5,0-11.3-1.5-14.6-4.6s-4.9-7.8-4.9-14.2c0-6.1,1.8-10.6,5.4-13.6s9-4.5,16.3-4.5h15.2
		l0.8,12.2h-16c-1.9-0.1-3.8,0.4-5.4,1.4c-1.3,1.1-1.9,2.7-1.8,4.4c-0.1,1.8,0.8,3.5,2.3,4.4c1.5,1,3.8,1.4,6.9,1.4
		c4.3,0,7.4-0.5,9.6-1.5c1.9-0.7,3.2-2.5,3.2-4.6l1.2,8.8c-0.2,2.2-1.3,4.3-3.1,5.7c-2,1.6-4.3,2.7-6.8,3.3
		C1074.8,1237.9,1072,1238.3,1069.2,1238.3z M1086.2,1237.4v-38.6c0.1-2.5-0.9-4.9-2.8-6.5c-1.9-1.5-4.5-2.3-8-2.3
		c-2.3,0-4.6,0.4-6.7,1.1c-2.1,0.7-4.2,1.7-5.9,3.1l-10-9.8c2.6-2.9,5.9-5.1,9.6-6.5c4.2-1.6,8.7-2.4,13.2-2.3c8,0,14.2,2,18.6,5.9
		c4.4,3.9,6.6,9.5,6.6,16.7v39.1L1086.2,1237.4z"/>
	<path class="st7" d="M1148.8,1237.4v-60.8h16v60.8H1148.8z M1157.4,1215v-14.9h37.3v14.9H1157.4z M1185.5,1237.4v-60.8h16.1v60.8
		H1185.5z"/>
	<path class="st7" d="M1244,1238.3c-8.8,0-15.7-2.4-20.5-7.1c-4.9-4.7-7.3-11.5-7.3-20.1v-6.8c0-9.1,2.3-16.1,7-21
		c4.7-4.9,11.3-7.4,19.8-7.4c8,0,14.3,3,18.7,8.9c4.4,5.9,6.6,14.3,6.6,25v4h-41.6v-10.8h27l-0.2-1.4c-0.2-3-1.4-5.9-3.3-8.2
		c-1.8-2-4.4-3-7.1-2.9c-3.9,0-6.9,1.2-9,3.5s-3.2,5.6-3.2,9.8v7.7c0,4.1,1.2,7.3,3.5,9.6c2.3,2.3,5.6,3.4,9.8,3.4
		c2.2,0,4.3-0.4,6.4-1.1c2.1-0.8,4-1.9,5.7-3.3l10.5,9.3c-3.1,2.9-6.7,5.1-10.7,6.7C1252.2,1237.5,1248.1,1238.3,1244,1238.3z"/>
	<path class="st7" d="M1314.5,1205v-22.2c0-9.1,2.1-15.7,6.3-19.7c4.2-4,11-6.1,20.4-6.2c1.7,0.1,3.5-0.3,5-1.1
		c1.1-0.8,1.6-2.1,1.5-3.4h16.4c0,6.4-1.7,11.1-5.2,13.9s-9,4.3-16.7,4.3c-4.3,0-7.4,1.1-9.3,3.2c-1.9,2.1-2.9,5.5-2.9,10.3v21
		L1314.5,1205z M1340.8,1238.3c-8.4,0-14.8-2.3-19.4-6.9c-4.6-4.6-6.9-11.1-6.9-19.5v-11.1l12.5-8.8c1-4.5,2.8-8,5.5-10.3
		s6.4-3.5,11.1-3.5c7.4,0,13.1,2.3,17.2,6.8s6.1,11,6.1,19.3v7.7c0,8.4-2.3,14.8-6.9,19.4C1355.6,1236,1349.1,1238.3,1340.8,1238.3
		L1340.8,1238.3z M1340.7,1222.8c3.2,0,5.8-0.9,7.6-2.8s2.7-4.6,2.7-8v-7.7c0-3.4-0.9-6-2.7-7.9c-1.8-1.9-4.3-2.8-7.6-2.8
		c-2.8-0.2-5.5,0.9-7.5,2.8c-1.8,1.9-2.7,4.5-2.7,7.9v7.7c0,3.4,0.9,6.1,2.7,8C1335.2,1222,1337.9,1223,1340.7,1222.8L1340.7,1222.8
		z"/>
	<path class="st7" d="M1407.7,1238.3c-8.8,0-15.7-2.4-20.5-7.1c-4.9-4.7-7.3-11.5-7.3-20.1v-6.8c0-9.1,2.3-16.1,7-21
		s11.3-7.4,19.8-7.4c8,0,14.3,3,18.7,8.9c4.4,5.9,6.6,14.3,6.6,25v4h-41.6v-10.8h26.9l-0.2-1.4c-0.2-3-1.4-5.8-3.3-8.1
		c-1.8-2-4.4-3-7.1-2.9c-3.9,0-6.9,1.2-9,3.5s-3.2,5.6-3.2,9.8v7.6c0,4.1,1.2,7.3,3.5,9.6c2.3,2.3,5.6,3.4,9.8,3.4
		c2.2,0,4.3-0.4,6.4-1.1c2.1-0.8,4-1.9,5.7-3.3l10.5,9.3c-3.1,2.9-6.7,5.1-10.7,6.7C1415.9,1237.5,1411.8,1238.3,1407.7,1238.3z"/>
	<path class="st7" d="M1446,1237.4v-60.8h16.1v60.8H1446z M1454.6,1237.4V1222h60.5v15.5H1454.6z M1475.9,1237.4v-60.8h16.1v60.8
		H1475.9z M1505.9,1237.4v-60.8h16v60.8H1505.9z"/>
	<path class="st7" d="M1564.4,1238.3c-8.8,0-15.7-2.4-20.5-7.1c-4.9-4.7-7.3-11.5-7.3-20.1v-6.8c0-9.1,2.3-16.1,7-21
		s11.3-7.4,19.8-7.4c8,0,14.3,3,18.7,8.9c4.4,5.9,6.6,14.3,6.6,25v4H1547v-10.8h27l-0.2-1.4c-0.2-3-1.4-5.8-3.3-8.1
		c-1.8-2-4.4-3-7.1-2.9c-3.9,0-6.9,1.2-9,3.5s-3.2,5.6-3.2,9.8v7.6c0,4.1,1.2,7.3,3.5,9.6c2.3,2.3,5.6,3.4,9.8,3.4
		c2.2,0,4.3-0.4,6.4-1.1c2.1-0.8,4-1.9,5.7-3.3l10.5,9.3c-3.1,2.9-6.7,5.1-10.7,6.7C1572.6,1237.5,1568.5,1238.3,1564.4,1238.3z"/>
	<path class="st7" d="M1634.9,1237.4v-60.8h16v60.8H1634.9z M1643.5,1215v-14.9h37.3v14.9H1643.5z M1671.6,1237.4v-60.8h16.1v60.8
		H1671.6z"/>
	<path class="st7" d="M1720.6,1238.3c-6.5,0-11.3-1.5-14.6-4.6c-3.2-3.1-4.9-7.8-4.9-14.2c0-6.1,1.8-10.6,5.4-13.6s9-4.5,16.3-4.5
		h15.2l0.8,12.2h-16c-1.9-0.1-3.8,0.4-5.4,1.4c-1.3,1.1-1.9,2.7-1.8,4.4c-0.1,1.8,0.8,3.5,2.3,4.4c1.5,1,3.8,1.4,6.9,1.4
		c4.3,0,7.4-0.5,9.6-1.5c1.9-0.7,3.2-2.5,3.2-4.6l1.2,8.8c-0.2,2.2-1.3,4.3-3.1,5.7c-2,1.6-4.3,2.7-6.8,3.3
		C1726.1,1237.9,1723.4,1238.3,1720.6,1238.3z M1737.5,1237.4v-38.6c0.1-2.5-0.9-4.9-2.8-6.5c-1.9-1.5-4.5-2.3-8-2.3
		c-2.3,0-4.6,0.4-6.7,1.1c-2.1,0.7-4.2,1.7-5.9,3.1l-10-9.8c2.6-2.9,5.9-5.1,9.6-6.5c4.2-1.6,8.7-2.4,13.2-2.3c8,0,14.2,2,18.6,5.9
		c4.4,3.9,6.6,9.5,6.6,16.7v39.1L1737.5,1237.4z"/>
	<path class="st7" d="M1797.7,1209.7l15.4-33.1h14.4v60.8h-14.6v-40l0.6,3.8l-11,24.4h-9.5l-11-24.4l0.6-3.8v40h-14.6v-60.8h14.4
		L1797.7,1209.7z"/>
	<path class="st7" d="M1869.9,1238.3c-8.8,0-15.7-2.4-20.5-7.1c-4.9-4.7-7.3-11.5-7.3-20.1v-6.8c0-9.1,2.3-16.1,7-21
		c4.7-4.9,11.3-7.4,19.8-7.4c8,0,14.3,3,18.7,8.9c4.4,5.9,6.6,14.3,6.6,25v4h-41.6v-10.8h26.9l-0.2-1.4c-0.2-3-1.4-5.8-3.3-8.1
		c-1.8-2-4.5-3-7.1-2.9c-3.9,0-6.9,1.2-9,3.5c-2.1,2.3-3.2,5.6-3.2,9.8v7.6c0,4.1,1.2,7.3,3.5,9.6c2.3,2.3,5.6,3.4,9.8,3.4
		c2.2,0,4.3-0.4,6.4-1.1c2.1-0.8,4-1.9,5.7-3.3l10.5,9.3c-3.1,2.9-6.7,5.1-10.7,6.7C1878.1,1237.5,1874,1238.3,1869.9,1238.3z"/>
	<path class="st7" d="M1908.2,1262.2v-85.6h16.1v85.6H1908.2z M1938.4,1238.3c-3.3,0.1-6.5-0.9-9.2-2.7c-2.7-1.9-4.7-4.6-5.8-7.7
		l0.8-13.9c0,1.8,0.3,3.5,1.1,5.1c0.7,1.4,1.7,2.5,3.1,3.2c1.5,0.8,3.2,1.2,4.9,1.1c2.7,0.1,5.3-1,7-3c1.7-2,2.5-4.8,2.5-8.4v-9.7
		c0-3.7-0.8-6.6-2.5-8.7c-1.7-2.1-4.3-3.2-7-3.1c-1.7-0.1-3.4,0.3-4.9,1.1c-1.3,0.8-2.4,1.9-3.1,3.3c-0.7,1.7-1.1,3.5-1.1,5.3
		l-1.2-13.5c1.4-3.3,3.6-6.1,6.5-8.2c2.6-1.9,5.7-2.9,8.9-2.9c6.5,0,11.6,2.3,15.1,7c3.6,4.7,5.3,11.2,5.3,19.6v9.7
		c0,8.4-1.8,14.8-5.3,19.4S1944.9,1238.3,1938.4,1238.3z"/>
	<path class="st7" d="M1999.5,1238.3c-8.8,0-15.7-2.4-20.5-7.1c-4.9-4.7-7.3-11.5-7.3-20.1v-6.8c0-9.1,2.3-16.1,7-21
		c4.7-4.9,11.3-7.4,19.8-7.4c8.1,0,14.3,3,18.7,8.9c4.4,5.9,6.6,14.3,6.6,25v4h-41.6v-10.8h27l-0.2-1.4c-0.2-3-1.4-5.8-3.3-8.1
		c-1.8-2-4.5-3-7.1-2.9c-3.9,0-6.9,1.2-9,3.5c-2.1,2.3-3.2,5.6-3.2,9.8v7.6c0,4.1,1.2,7.3,3.5,9.6c2.3,2.3,5.6,3.4,9.8,3.4
		c2.2,0,4.3-0.4,6.4-1.1c2.1-0.8,4-1.9,5.8-3.3l10.4,9.4c-3.1,2.9-6.7,5.1-10.7,6.7C2007.7,1237.5,2003.6,1238.3,1999.5,1238.3z"/>
	<path class="st7" d="M2037.8,1237.4v-60.8h16v60.8H2037.8z M2046.4,1215v-14.9h37.3v14.9H2046.4z M2074.5,1237.4v-60.8h16.1v60.8
		H2074.5z"/>
	<path class="st7" d="M2123.5,1238.3c-6.5,0-11.3-1.5-14.6-4.6c-3.2-3.1-4.9-7.8-4.9-14.2c0-6.1,1.8-10.6,5.4-13.6
		c3.6-3,9-4.5,16.3-4.5h15.2l0.8,12.2h-16c-1.9-0.1-3.8,0.4-5.4,1.4c-1.3,1.1-1.9,2.7-1.8,4.4c-0.1,1.8,0.8,3.5,2.3,4.4
		c1.5,1,3.8,1.4,6.9,1.4c4.3,0,7.4-0.5,9.6-1.5c1.9-0.7,3.2-2.5,3.2-4.6l1.2,8.8c-0.2,2.2-1.3,4.3-3.1,5.7c-2,1.6-4.3,2.7-6.8,3.3
		C2129,1237.9,2126.3,1238.3,2123.5,1238.3z M2140.4,1237.4v-38.6c0.1-2.5-0.9-4.9-2.8-6.5c-1.9-1.5-4.5-2.3-8-2.3
		c-2.3,0-4.6,0.4-6.7,1.1c-2.1,0.7-4.2,1.7-5.9,3.1l-10-9.8c2.6-2.9,5.9-5.1,9.6-6.5c4.2-1.6,8.7-2.4,13.2-2.3c8,0,14.2,2,18.6,5.9
		c4.4,3.9,6.6,9.5,6.6,16.7v39.1L2140.4,1237.4z"/>
</g>
</svg>
